<?xml version="1.0" encoding="UTF-8" standalone="no"?>
<!-- Created with Inkscape (http://www.inkscape.org/) -->

<svg
   width="167.92218mm"
   height="70.37925mm"
   viewBox="0 0 167.92218 70.37925"
   version="1.1"
   id="svg1"
   xml:space="preserve"
   xmlns:xlink="http://www.w3.org/1999/xlink"
   xmlns="http://www.w3.org/2000/svg"
   xmlns:svg="http://www.w3.org/2000/svg"><defs
     id="defs1"><linearGradient
       id="linearGradient2"><stop
         style="stop-color:#80cce7;stop-opacity:1;"
         offset="0"
         id="stop2" /><stop
         style="stop-color:#269bc4;stop-opacity:1;"
         offset="1"
         id="stop3" /></linearGradient><radialGradient
       xlink:href="#linearGradient2"
       id="radialGradient5"
       gradientUnits="userSpaceOnUse"
       gradientTransform="matrix(1.9839107,0,0,0.60465715,133.3288,-149.07048)"
       cx="-216.15685"
       cy="-137.45712"
       fx="-216.15685"
       fy="-137.45712"
       r="83.96109" /></defs><g
     id="layer1"
     transform="translate(326.53045,273.26498)"><path
       style="fill:url(#radialGradient5);fill-opacity:1"
       d="m -312.63782,-209.80907 -0.0461,-6.92327 -6.92327,-0.0461 -6.92326,-0.0461 v -23.45767 c 0,-12.90172 0.05,-23.45767 0.11106,-23.45767 0.0611,0 3.196,1.7264 6.96649,3.83645 l 6.85543,3.83646 8.7e-4,19.62327 8.7e-4,19.62326 h 8.75426 8.75425 l 4.6072,2.58542 c 2.53397,1.42198 7.5044,4.20887 11.0454,6.19309 3.54101,1.98423 6.77554,3.8007 7.18785,4.03661 0.48063,0.27499 0.74965,0.55285 0.74965,0.77426 0,0.34089 -0.26505,0.34534 -20.54725,0.34534 h -20.54726 z m 97.35553,0.38002 c -3.75336,-0.88329 -6.06744,-4.64518 -5.42604,-8.82083 0.40861,-2.66017 1.80879,-4.6361 4.01771,-5.66978 1.00033,-0.46811 1.42265,-0.55744 2.95828,-0.62574 1.98681,-0.0884 3.29056,0.18249 4.61526,0.95881 1.02168,0.59875 2.12664,1.84818 2.65488,3.002 0.51198,1.11833 0.86112,3.24783 0.68574,4.18264 l -0.12002,0.63975 h -5.1769 -5.1769 l 0.1461,0.64781 c 0.51355,2.277 3.42228,2.92559 4.91497,1.09594 0.25876,-0.31718 0.47866,-0.34113 2.70694,-0.29483 l 2.42531,0.0504 -0.50891,1.05833 c -0.52524,1.0923 -1.74463,2.39777 -2.8424,3.04306 -1.42367,0.83685 -4.04269,1.16343 -5.87402,0.73245 z m 4.74564,-9.55224 c -0.0628,-0.3153 -0.38886,-0.84841 -0.72461,-1.18469 -0.55778,-0.55866 -0.71348,-0.61656 -1.80408,-0.67085 -1.3779,-0.0686 -2.10029,0.263 -2.69388,1.23656 -0.71723,1.17636 -0.68404,1.19224 2.49245,1.19224 h 2.84427 z m 11.05905,9.41703 c -1.9441,-0.67175 -3.45736,-2.27492 -4.09452,-4.33781 -1.3186,-4.26912 0.14211,-8.54005 3.48383,-10.18625 0.6996,-0.34464 1.09891,-0.40513 2.67447,-0.40513 1.72773,0 1.91075,0.0345 2.72594,0.51361 0.48062,0.28248 1.09577,0.75658 1.36701,1.05355 l 0.49316,0.53994 v -1.00945 -1.00945 h 2.29305 2.29306 v 7.49653 7.49652 h -2.29306 -2.29305 v -0.98381 -0.98382 l -0.89849,0.78598 c -0.51075,0.44679 -1.28069,0.90941 -1.78415,1.07201 -1.15384,0.37265 -2.81748,0.35486 -3.96725,-0.0424 z m 4.88875,-4.05542 c 0.95733,-0.50924 1.59654,-1.54913 1.70681,-2.77671 0.22377,-2.49114 -1.07212,-4.1787 -3.20887,-4.1787 -2.12453,0 -3.41147,1.62711 -3.21572,4.06571 0.15891,1.97968 1.39551,3.21663 3.21572,3.21663 0.5254,0 1.13819,-0.13338 1.50206,-0.32693 z m -55.56525,-5.22932 v -9.43681 h 2.378 2.378 l 0.0474,4.02832 0.0473,4.02831 3.05128,-4.02831 3.05127,-4.02832 h 2.63727 c 1.4505,0 2.63727,0.0449 2.63727,0.0998 0,0.0549 -1.555,2.05909 -3.45556,4.45382 -1.90055,2.39474 -3.49417,4.44711 -3.54138,4.56083 -0.0472,0.11372 1.53101,2.25684 3.50714,4.7625 1.97613,2.50565 3.65381,4.65496 3.72818,4.77622 0.10598,0.17282 -0.46767,0.22016 -2.65332,0.21895 l -2.78854,-0.002 -3.0868,-4.07007 -3.08681,-4.07007 -0.0473,4.07161 -0.0474,4.07161 h -2.378 -2.378 z m 18.69722,1.94028 v -7.49653 h 2.38125 2.38125 v 1.14188 1.14189 l 0.77696,-0.77696 c 0.93277,-0.93277 1.94049,-1.47502 3.01484,-1.62228 l 0.79431,-0.10887 v 2.47532 2.47532 l -1.4865,0.0622 c -1.68201,0.0704 -2.26197,0.36084 -2.79065,1.39765 -0.26741,0.52441 -0.30845,1.15006 -0.30868,4.70586 l -2.8e-4,4.10105 h -2.38125 -2.38125 z m 50.56581,7.24382 c -1.16438,-0.31297 -2.23651,-1.10733 -2.76442,-2.04818 -0.42598,-0.7592 -0.44397,-0.92389 -0.52917,-4.84287 l -0.0882,-4.05694 -0.92604,-0.0533 -0.92604,-0.0533 v -1.83365 -1.83365 l 0.92604,-0.0533 0.92604,-0.0533 0.0503,-1.80798 0.0503,-1.80799 h 2.28689 2.28688 v 1.85206 1.85209 h 1.49931 1.49931 v 1.85208 1.85208 h -1.49931 -1.49931 v 3.41799 c 0,3.98805 -0.0589,3.85739 1.78553,3.96161 l 1.21309,0.0686 v 1.92037 1.92038 l -1.7198,-0.0119 c -0.94588,-0.007 -2.10298,-0.11491 -2.57134,-0.2408 z m 6.76058,-7.24382 v -7.49653 h 2.38125 2.38125 v 7.49653 7.49652 h -2.38125 -2.38125 z m 8.46667,1.85208 v -5.64445 h -0.79375 -0.79375 v -1.85208 -1.85208 h 0.76862 0.76862 l 0.11054,-1.01424 c 0.24714,-2.2676 0.9922,-3.50909 2.59313,-4.3209 0.97209,-0.49294 3.59873,-0.98146 4.14661,-0.77121 0.22068,0.0847 0.25876,0.43531 0.21744,2.00207 l -0.0501,1.89942 -0.72742,0.0532 c -0.88465,0.0646 -1.44772,0.59713 -1.5957,1.50905 l -0.10429,0.64265 h 1.2578 1.2578 v 1.84403 1.84402 l -1.19062,0.0522 -1.19063,0.0522 -0.0466,5.60035 -0.0466,5.60035 h -2.29058 -2.29057 z m -143.75695,-32.10278 c 0,-14.35805 0.0281,-26.10555 0.0624,-26.10555 0.0343,0 3.1498,1.72955 6.92326,3.84344 l 6.86084,3.84345 0.0448,22.26211 0.0448,22.26211 h -6.96804 -6.96804 z m 136.63834,20.9853 c -1.43931,-0.43132 -2.12672,-2.20477 -1.34901,-3.48031 0.50833,-0.83374 1.33388,-1.27589 2.3822,-1.27589 2.11991,0 3.42704,2.08414 2.33364,3.72086 -0.69841,1.04545 -1.99874,1.44532 -3.36683,1.03534 z m -111.23835,-11.37211 -7.84782,-7.84932 8.02423,-8.02568 8.02423,-8.02569 h 9.87778 9.87778 l -8.02423,8.02569 -8.02424,8.02568 7.84783,7.84932 7.84783,7.84931 h -9.87778 -9.87778 z m 51.33346,-1.78207 c -2.38406,-0.64065 -4.12599,-2.25628 -4.97577,-4.61501 -0.27648,-0.76739 -0.36433,-1.4366 -0.36433,-2.77514 0,-1.33854 0.0879,-2.00774 0.36433,-2.77514 1.14203,-3.1699 3.73192,-4.89359 7.35274,-4.89359 4.16086,0 7.0219,2.33674 7.69957,6.28859 0.566,3.30069 -1.09713,6.85347 -3.82685,8.17491 -1.82629,0.88409 -4.2988,1.11964 -6.24969,0.59538 z m 3.73834,-4.06556 c 1.25882,-0.6328 1.83414,-1.95474 1.681,-3.86253 -0.0677,-0.84391 -0.21751,-1.33788 -0.56471,-1.86253 -0.51536,-0.77877 -1.59901,-1.38414 -2.47766,-1.38414 -0.89666,0 -1.96193,0.60483 -2.50188,1.4205 -0.44775,0.6764 -0.49673,0.89952 -0.49673,2.26281 0,1.18738 0.0784,1.6619 0.36488,2.20797 0.78668,1.49962 2.43507,2.00213 3.9951,1.21792 z m 29.1186,4.01987 c -1.9441,-0.67174 -3.45736,-2.27491 -4.09452,-4.3378 -1.3186,-4.26912 0.14212,-8.54005 3.48383,-10.18625 0.6996,-0.34464 1.09891,-0.40513 2.67447,-0.40513 1.72774,0 1.91075,0.0345 2.72594,0.51361 0.48062,0.28248 1.09577,0.75658 1.36701,1.05354 l 0.49316,0.53994 v -1.00945 -1.00944 h 2.29306 2.29305 v 7.49652 7.49653 h -2.29305 -2.29306 v -0.98382 -0.98381 l -0.89849,0.78597 c -0.51075,0.4468 -1.28069,0.90942 -1.78414,1.07202 -1.15384,0.37264 -2.81749,0.35486 -3.96726,-0.0424 z m 4.88875,-4.05541 c 0.95733,-0.50924 1.59654,-1.54913 1.70681,-2.77671 0.22378,-2.49114 -1.07212,-4.17871 -3.20886,-4.17871 -2.12453,0 -3.41148,1.62712 -3.21573,4.06572 0.15891,1.97968 1.39551,3.21663 3.21573,3.21663 0.5254,0 1.13818,-0.13338 1.50205,-0.32693 z m -55.21247,-5.22932 v -9.43681 h 2.38125 2.38125 v 7.67292 7.67291 h 2.99861 2.99861 v 1.76389 1.76389 h -5.37986 -5.37986 z m 29.98611,-0.52917 v -9.96597 h 2.3787 2.3787 l 0.0466,5.39815 0.0466,5.39815 2.17549,-2.92871 2.17549,-2.9287 h 2.8175 c 2.68364,0 2.80655,0.0151 2.58701,0.3184 -0.12677,0.17512 -1.47637,1.82215 -2.99912,3.66007 -1.52275,1.83791 -2.78139,3.40832 -2.79698,3.48979 -0.0156,0.0815 1.32952,1.76469 2.98912,3.74049 1.65961,1.9758 3.01747,3.63555 3.01747,3.68833 0,0.0528 -1.25058,0.096 -2.77905,0.096 h -2.77905 l -2.20394,-3.04271 -2.20394,-3.04271 -0.0483,3.04271 -0.0483,3.04271 h -2.37709 -2.37708 z m 34.925,0 v -9.96597 h 2.38125 2.38125 v 9.96597 9.96597 h -2.38125 -2.38125 z"
       id="path5" /></g></svg>
